<svg width="242" height="242" viewBox="0 0 242 242" fill="none" xmlns="http://www.w3.org/2000/svg">
<g filter="url(#filter0_d_387_2)">
<circle cx="110" cy="110" r="100" fill="#EAEAEA"/>
</g>
<path d="M148 116.5C151.59 116.5 154.5 113.59 154.5 110C154.5 106.41 151.59 103.5 148 103.5V116.5ZM66.4038 105.404C63.8654 107.942 63.8654 112.058 66.4038 114.596L107.77 155.962C110.308 158.5 114.424 158.5 116.962 155.962C119.5 153.424 119.5 149.308 116.962 146.77L80.1924 110L116.962 73.2304C119.5 70.692 119.5 66.5765 116.962 64.0381C114.424 61.4997 110.308 61.4997 107.77 64.0381L66.4038 105.404ZM148 103.5L71 103.5V116.5L148 116.5V103.5Z" fill="black"/>
<defs>
<filter id="filter0_d_387_2" x="0.299999" y="0.299999" width="241.4" height="241.4" filterUnits="userSpaceOnUse" color-interpolation-filters="sRGB">
<feFlood flood-opacity="0" result="BackgroundImageFix"/>
<feColorMatrix in="SourceAlpha" type="matrix" values="0 0 0 0 0 0 0 0 0 0 0 0 0 0 0 0 0 0 127 0" result="hardAlpha"/>
<feOffset dx="11" dy="11"/>
<feGaussianBlur stdDeviation="10.35"/>
<feComposite in2="hardAlpha" operator="out"/>
<feColorMatrix type="matrix" values="0 0 0 0 0 0 0 0 0 0 0 0 0 0 0 0 0 0 0.25 0"/>
<feBlend mode="normal" in2="BackgroundImageFix" result="effect1_dropShadow_387_2"/>
<feBlend mode="normal" in="SourceGraphic" in2="effect1_dropShadow_387_2" result="shape"/>
</filter>
</defs>
</svg>
